<svg xmlns="http://www.w3.org/2000/svg" xmlns:xlink="http://www.w3.org/1999/xlink" width="1366" zoomAndPan="magnify" viewBox="0 0 1024.5 576" height="768" preserveAspectRatio="xMidYMid meet" version="1.0"><defs><clipPath id="642e30d9fd"><path d="M 265.574219 126 L 758.921875 126 L 758.921875 450.601562 L 265.574219 450.601562 Z M 265.574219 126 " clip-rule="nonzero"/></clipPath></defs><g clip-path="url(#642e30d9fd)"><path fill="#cccccc" d="M 586.816406 140.933594 C 682.996094 174.558594 753.660156 264.300781 757.933594 372.363281 C 759.007812 399.496094 755.800781 425.8125 748.945312 450.65625 L 748.136719 450.378906 C 754.902344 425.898438 757.988281 399.9375 756.789062 373.152344 C 756.527344 367.320312 756.054688 361.546875 755.40625 355.828125 C 735.6875 359.003906 715.625 361.035156 695.28125 361.914062 C 693.421875 384.574219 689.191406 406.824219 682.945312 428.210938 L 682.363281 428.011719 C 688.585938 406.71875 692.722656 384.554688 694.441406 361.953125 C 677.757812 362.648438 660.878906 362.558594 643.863281 361.628906 C 632.480469 361.007812 621.21875 360.019531 610.058594 358.6875 C 606.78125 372.460938 603.015625 386.136719 598.800781 399.597656 L 598.460938 399.480469 C 602.671875 386.046875 606.433594 372.386719 609.675781 358.632812 C 574.585938 354.414062 540.636719 346.742188 508.171875 335.972656 L 491.070312 384.578125 L 507.363281 335.699219 C 475.683594 325.132812 445.40625 311.632812 416.847656 295.511719 C 411.5 307.519531 406.46875 319.917969 401.820312 332.609375 L 401.484375 332.496094 C 406.140625 319.785156 411.175781 307.363281 416.511719 295.324219 C 393.519531 282.324219 371.632812 267.640625 351.027344 251.4375 C 340.390625 268.4375 331.183594 286.765625 323.695312 306.039062 L 323.066406 305.824219 C 330.589844 286.46875 339.785156 268.039062 350.378906 250.914062 C 336.429688 239.914062 323.058594 228.214844 310.332031 215.878906 C 291.980469 236.71875 277.101562 260.585938 266.550781 286.605469 L 265.71875 286.324219 C 302.320312 196.15625 388.984375 131 492.476562 126.90625 C 518.515625 125.875 543.792969 128.785156 567.746094 135.097656 C 569.796875 135.585938 571.828125 136.117188 573.84375 136.695312 C 575.40625 137.070312 576.941406 137.535156 578.4375 138.082031 C 578.554688 138.125 578.667969 138.179688 578.789062 138.226562 C 579.855469 138.574219 580.929688 138.914062 581.984375 139.289062 C 582.195312 139.359375 582.398438 139.449219 582.605469 139.523438 C 584.011719 139.988281 585.421875 140.441406 586.816406 140.929688 Z M 578.3125 142.507812 C 577.703125 142.3125 577.089844 142.121094 576.476562 141.933594 L 566.15625 171.226562 C 581.378906 176.132812 596.71875 179.925781 612.089844 182.65625 C 604.441406 162.207031 592.949219 148.332031 578.3125 142.507812 Z M 572.410156 140.699219 C 572.039062 140.59375 571.660156 140.5 571.289062 140.394531 C 560.707031 138.164062 548.734375 139.730469 535.5625 145.621094 C 530.890625 147.710938 526.199219 150.300781 521.492188 153.328125 C 534.121094 159.425781 547.230469 164.839844 560.816406 169.460938 C 561.417969 169.664062 562.023438 169.847656 562.621094 170.046875 Z M 595.828125 149.589844 C 603.695312 157.636719 610.070312 168.945312 614.742188 183.109375 C 624.5 184.765625 634.28125 185.988281 644.035156 186.800781 C 630.164062 171.023438 613.914062 158.417969 595.828125 149.589844 Z M 553.140625 136.503906 C 539.144531 134.515625 524.484375 134.515625 509.324219 136.699219 C 504.652344 137.371094 500.015625 138.253906 495.40625 139.3125 C 503.070312 143.863281 510.953125 148.15625 519.039062 152.140625 C 524.929688 148.019531 530.824219 144.597656 536.664062 141.933594 C 542.386719 139.320312 547.882812 137.523438 553.140625 136.503906 Z M 621.046875 160.398438 C 631.125 168.015625 640.410156 176.980469 648.742188 187.171875 C 653.371094 187.492188 657.980469 187.710938 662.59375 187.84375 C 649.710938 177.421875 635.796875 168.214844 621.046875 160.398438 Z M 523.699219 131.554688 C 513.140625 130.609375 502.414062 130.28125 491.554688 130.65625 C 488.464844 130.761719 485.378906 130.9375 482.316406 131.152344 C 485.316406 133.121094 488.355469 135.050781 491.429688 136.933594 C 497.667969 135.265625 503.980469 133.9375 510.335938 132.980469 C 514.835938 132.304688 519.292969 131.851562 523.699219 131.554688 Z M 666.628906 191.171875 C 661.578125 191.089844 656.511719 190.902344 651.441406 190.59375 C 660.933594 202.808594 669.136719 216.65625 675.832031 231.894531 C 685.222656 231.542969 694.558594 230.847656 703.820312 229.824219 C 692.808594 215.683594 680.332031 202.722656 666.628906 191.171875 Z M 477.015625 131.578125 C 455.84375 133.496094 435.496094 137.960938 416.246094 144.667969 C 423.089844 150.285156 430.140625 155.703125 437.382812 160.859375 C 453.238281 150.914062 469.921875 143.199219 487.144531 138.132812 C 483.726562 136 480.34375 133.816406 477.015625 131.578125 Z M 647.050781 190.328125 C 647.046875 190.324219 647.03125 190.328125 647.027344 190.320312 C 636.648438 189.5625 626.246094 188.328125 615.839844 186.613281 C 619.621094 199.183594 622.136719 213.824219 623.269531 230.265625 C 640.03125 231.925781 656.703125 232.480469 673.203125 231.976562 C 666.003906 216.511719 657.21875 202.542969 647.050781 190.328125 Z M 490.855469 140.421875 C 473.019531 145.023438 455.738281 152.433594 439.347656 162.25 C 452.671875 171.609375 466.667969 180.140625 481.257812 187.8125 C 492.671875 174.292969 504.359375 162.957031 516.058594 154.308594 C 507.414062 150 499.007812 145.363281 490.855469 140.421875 Z M 613.335938 186.183594 C 597.214844 183.40625 581.105469 179.460938 565.105469 174.296875 L 550.429688 215.976562 C 562.273438 219.5 574.394531 222.503906 586.777344 224.925781 C 598.519531 227.222656 610.257812 228.941406 621.941406 230.136719 C 620.527344 213.4375 617.59375 198.6875 613.335938 186.183594 Z M 518.347656 155.410156 C 506.273438 163.6875 494.195312 174.882812 482.40625 188.429688 C 502.996094 199.167969 524.777344 208.132812 547.613281 215.117188 L 561.617188 173.132812 C 561.019531 172.933594 560.425781 172.753906 559.832031 172.554688 C 545.460938 167.664062 531.628906 161.914062 518.347656 155.410156 Z M 705.082031 231.453125 C 695.632812 232.449219 686.097656 233.09375 676.507812 233.398438 C 684.273438 251.441406 689.921875 271.402344 693.171875 292.882812 C 708.226562 292.070312 723.15625 290.488281 737.914062 288.183594 C 729.4375 267.785156 718.339844 248.757812 705.082031 231.453125 Z M 414.71875 145.199219 C 396.222656 151.773438 378.78125 160.425781 362.636719 170.847656 C 372.203125 179.992188 382.210938 188.722656 392.617188 197.015625 C 406.1875 183.3125 420.839844 171.363281 436.304688 161.542969 C 428.914062 156.324219 421.699219 150.886719 414.71875 145.199219 Z M 673.902344 233.46875 C 657.207031 233.886719 640.328125 233.261719 623.355469 231.5 C 624.503906 249.355469 624.027344 269.292969 621.78125 290.976562 C 645.257812 293.503906 668.621094 294.132812 691.714844 292.964844 C 688.167969 271.425781 682.105469 251.457031 673.902344 233.46875 Z M 438.246094 162.90625 C 422.460938 172.484375 407.53125 184.28125 393.71875 197.894531 C 410.753906 211.390625 428.859375 223.710938 447.980469 234.679688 C 458.382812 217.554688 469.34375 202.023438 480.582031 188.613281 C 465.84375 180.902344 451.722656 172.300781 438.246094 162.90625 Z M 622.027344 231.347656 C 610.691406 230.132812 599.3125 228.445312 587.914062 226.21875 C 575.023438 223.695312 562.425781 220.558594 550.097656 216.867188 L 530.882812 271.472656 C 540.941406 274.753906 551.183594 277.699219 561.613281 280.292969 C 581.429688 285.222656 601.304688 288.726562 621.082031 290.886719 C 623.183594 269.117188 623.453125 249.148438 622.027344 231.347656 Z M 481.714844 189.199219 C 470.285156 202.433594 459.132812 217.886719 448.574219 235.007812 C 473.730469 249.390625 500.609375 261.464844 529.011719 270.863281 L 547.304688 216.019531 C 524.363281 208.96875 502.441406 199.957031 481.714844 189.199219 Z M 738.804688 290.421875 C 723.855469 292.648438 708.726562 294.15625 693.472656 294.867188 C 696.039062 312.71875 696.945312 331.601562 695.988281 351.296875 C 695.84375 354.308594 695.640625 357.304688 695.410156 360.304688 C 715.628906 359.3125 735.585938 357.128906 755.191406 353.824219 C 752.488281 331.664062 746.882812 310.402344 738.804688 290.421875 Z M 361.226562 171.746094 C 343.027344 183.664062 326.535156 197.863281 312.109375 213.902344 C 324.648438 226.257812 337.835938 237.960938 351.589844 248.992188 C 363.371094 230.242188 376.828125 213.074219 391.601562 198 C 381.066406 189.679688 370.925781 180.914062 361.226562 171.746094 Z M 692.023438 294.921875 C 668.792969 295.929688 645.269531 295.132812 621.628906 292.449219 C 620.527344 302.746094 619.035156 313.429688 617.121094 324.46875 C 615.214844 335.472656 612.945312 346.484375 610.367188 357.429688 C 620.855469 358.65625 631.453125 359.554688 642.144531 360.140625 C 659.78125 361.101562 677.261719 361.148438 694.550781 360.332031 C 694.742188 357.609375 694.925781 354.878906 695.046875 352.148438 C 695.9375 332.152344 694.859375 312.992188 692.023438 294.921875 Z M 392.703125 198.894531 C 377.738281 213.796875 364.117188 230.828125 352.242188 249.507812 C 372.675781 265.847656 394.382812 280.652344 417.226562 293.753906 C 426.480469 273.019531 436.632812 253.46875 447.40625 235.628906 C 428.160156 224.644531 409.886719 212.375 392.703125 198.894531 Z M 620.957031 292.367188 C 601.632812 290.144531 582.25 286.664062 562.867188 281.839844 C 551.886719 279.109375 541.113281 275.972656 530.53125 272.5 L 508.617188 334.765625 C 541.007812 345.582031 574.910156 353.246094 609.984375 357.375 C 612.460938 346.761719 614.625 336.09375 616.449219 325.417969 C 618.398438 314.003906 619.894531 302.980469 620.953125 292.367188 Z M 448 235.957031 C 437.117188 253.703125 426.871094 273.214844 417.566406 293.945312 C 446 310.222656 476.167969 323.859375 507.785156 334.484375 L 528.660156 271.890625 C 500.21875 262.417969 473.261719 250.324219 447.996094 235.957031 Z M 448 235.957031 " fill-opacity="1" fill-rule="nonzero"/></g></svg>