<svg xmlns="http://www.w3.org/2000/svg" xmlns:xlink="http://www.w3.org/1999/xlink" width="1366" zoomAndPan="magnify" viewBox="0 0 1024.5 576" height="768" preserveAspectRatio="xMidYMid meet" version="1.0"><defs><g/><clipPath id="ba2e7ba53d"><path d="M 0 0.140625 L 1024 0.140625 L 1024 575.859375 L 0 575.859375 Z M 0 0.140625 " clip-rule="nonzero"/></clipPath><clipPath id="c7acc39f58"><path d="M 480.574219 264.160156 L 553.136719 264.160156 L 553.136719 312.160156 L 480.574219 312.160156 Z M 480.574219 264.160156 " clip-rule="nonzero"/></clipPath></defs><g clip-path="url(#ba2e7ba53d)"><path fill="#ffffff" d="M 0 0.140625 L 1024.5 0.140625 L 1024.5 583.640625 L 0 583.640625 Z M 0 0.140625 " fill-opacity="1" fill-rule="nonzero"/><path fill="#ffffff" d="M 0 0.140625 L 1024.5 0.140625 L 1024.5 576.140625 L 0 576.140625 Z M 0 0.140625 " fill-opacity="1" fill-rule="nonzero"/><path fill="#ffffff" d="M 0 0.140625 L 1024.5 0.140625 L 1024.5 576.140625 L 0 576.140625 Z M 0 0.140625 " fill-opacity="1" fill-rule="nonzero"/></g><g clip-path="url(#c7acc39f58)"><path fill="#c0c0c0" d="M 527.929688 266.386719 C 542.105469 271.359375 552.523438 284.621094 553.152344 300.59375 C 553.308594 304.605469 552.835938 308.496094 551.828125 312.167969 L 551.707031 312.125 C 552.703125 308.507812 553.160156 304.671875 552.984375 300.710938 C 552.945312 299.851562 552.875 298.996094 552.777344 298.152344 C 549.871094 298.621094 546.914062 298.921875 543.917969 299.050781 C 543.644531 302.398438 543.019531 305.6875 542.097656 308.851562 L 542.011719 308.820312 C 542.929688 305.671875 543.539062 302.398438 543.792969 299.058594 C 541.332031 299.160156 538.84375 299.144531 536.335938 299.007812 C 534.660156 298.917969 533 298.769531 531.355469 298.574219 C 530.871094 300.609375 530.316406 302.632812 529.695312 304.621094 L 529.644531 304.605469 C 530.265625 302.617188 530.820312 300.597656 531.296875 298.566406 C 526.125 297.941406 521.121094 296.808594 516.335938 295.214844 L 513.8125 302.402344 L 516.214844 295.175781 C 511.546875 293.613281 507.082031 291.617188 502.875 289.234375 C 502.085938 291.011719 501.34375 292.84375 500.660156 294.71875 L 500.609375 294.703125 C 501.296875 292.824219 502.039062 290.988281 502.824219 289.207031 C 499.433594 287.285156 496.207031 285.117188 493.171875 282.722656 C 491.601562 285.234375 490.246094 287.945312 489.140625 290.792969 L 489.050781 290.761719 C 490.160156 287.898438 491.511719 285.175781 493.074219 282.644531 C 491.019531 281.019531 489.046875 279.289062 487.171875 277.464844 C 484.46875 280.546875 482.273438 284.074219 480.71875 287.917969 L 480.597656 287.878906 C 485.992188 274.550781 498.765625 264.921875 514.023438 264.316406 C 517.859375 264.164062 521.585938 264.59375 525.117188 265.527344 C 525.417969 265.597656 525.71875 265.675781 526.015625 265.761719 C 526.246094 265.816406 526.472656 265.886719 526.691406 265.96875 C 526.710938 265.972656 526.726562 265.980469 526.746094 265.988281 C 526.902344 266.039062 527.058594 266.089844 527.214844 266.144531 C 527.246094 266.15625 527.277344 266.167969 527.308594 266.179688 C 527.515625 266.25 527.722656 266.316406 527.929688 266.386719 Z M 526.675781 266.621094 C 526.585938 266.59375 526.496094 266.5625 526.402344 266.535156 L 524.882812 270.867188 C 527.125 271.589844 529.386719 272.152344 531.652344 272.554688 C 530.527344 269.53125 528.832031 267.480469 526.675781 266.621094 Z M 525.804688 266.355469 C 525.75 266.339844 525.695312 266.324219 525.640625 266.308594 C 524.078125 265.980469 522.316406 266.210938 520.371094 267.082031 C 519.683594 267.390625 518.992188 267.773438 518.300781 268.21875 C 520.160156 269.121094 522.09375 269.921875 524.09375 270.605469 C 524.183594 270.636719 524.273438 270.664062 524.363281 270.691406 Z M 529.257812 267.667969 C 530.414062 268.855469 531.355469 270.527344 532.042969 272.621094 C 533.484375 272.867188 534.925781 273.046875 536.363281 273.167969 C 534.316406 270.835938 531.921875 268.972656 529.257812 267.667969 Z M 522.964844 265.734375 C 520.902344 265.441406 518.738281 265.441406 516.503906 265.761719 C 515.816406 265.863281 515.132812 265.992188 514.453125 266.148438 C 515.582031 266.820312 516.746094 267.457031 517.9375 268.046875 C 518.804688 267.4375 519.675781 266.929688 520.535156 266.535156 C 521.378906 266.148438 522.1875 265.882812 522.964844 265.734375 Z M 532.972656 269.265625 C 534.460938 270.390625 535.828125 271.714844 537.054688 273.222656 C 537.738281 273.269531 538.417969 273.300781 539.097656 273.324219 C 537.199219 271.78125 535.148438 270.421875 532.972656 269.265625 Z M 518.625 265.003906 C 517.066406 264.863281 515.488281 264.8125 513.886719 264.871094 C 513.429688 264.886719 512.976562 264.910156 512.523438 264.941406 C 512.964844 265.234375 513.414062 265.519531 513.867188 265.796875 C 514.785156 265.550781 515.71875 265.355469 516.652344 265.214844 C 517.316406 265.113281 517.972656 265.046875 518.625 265.003906 Z M 539.691406 273.8125 C 538.949219 273.800781 538.203125 273.773438 537.453125 273.730469 C 538.855469 275.535156 540.0625 277.582031 541.050781 279.832031 C 542.433594 279.78125 543.808594 279.679688 545.175781 279.527344 C 543.550781 277.4375 541.714844 275.519531 539.691406 273.8125 Z M 511.742188 265.003906 C 508.621094 265.289062 505.621094 265.949219 502.785156 266.941406 C 503.792969 267.769531 504.832031 268.570312 505.902344 269.332031 C 508.238281 267.863281 510.695312 266.722656 513.234375 265.972656 C 512.730469 265.660156 512.234375 265.335938 511.742188 265.003906 Z M 536.808594 273.691406 C 536.804688 273.6875 536.804688 273.6875 536.804688 273.6875 C 535.273438 273.578125 533.738281 273.394531 532.207031 273.140625 C 532.761719 274.996094 533.132812 277.164062 533.300781 279.59375 C 535.773438 279.835938 538.230469 279.917969 540.660156 279.84375 C 539.601562 277.558594 538.304688 275.496094 536.808594 273.691406 Z M 513.78125 266.3125 C 511.152344 266.992188 508.605469 268.089844 506.191406 269.539062 C 508.15625 270.921875 510.21875 272.183594 512.367188 273.316406 C 514.050781 271.320312 515.773438 269.644531 517.496094 268.367188 C 516.222656 267.730469 514.984375 267.042969 513.78125 266.3125 Z M 531.835938 273.078125 C 529.460938 272.667969 527.085938 272.082031 524.726562 271.320312 L 522.5625 277.480469 C 524.308594 278 526.097656 278.445312 527.921875 278.804688 C 529.652344 279.140625 531.382812 279.398438 533.105469 279.574219 C 532.898438 277.105469 532.464844 274.925781 531.835938 273.078125 Z M 517.835938 268.527344 C 516.054688 269.75 514.273438 271.40625 512.539062 273.410156 C 515.574219 274.996094 518.78125 276.320312 522.148438 277.351562 L 524.214844 271.148438 C 524.125 271.117188 524.039062 271.09375 523.949219 271.0625 C 521.832031 270.339844 519.792969 269.488281 517.835938 268.527344 Z M 545.359375 279.769531 C 543.96875 279.914062 542.5625 280.011719 541.148438 280.054688 C 542.292969 282.722656 543.125 285.671875 543.605469 288.847656 C 545.824219 288.726562 548.023438 288.492188 550.199219 288.152344 C 548.953125 285.136719 547.316406 282.324219 545.359375 279.769531 Z M 502.558594 267.019531 C 499.832031 267.992188 497.261719 269.269531 494.882812 270.808594 C 496.292969 272.160156 497.769531 273.453125 499.300781 274.679688 C 501.300781 272.652344 503.460938 270.886719 505.742188 269.433594 C 504.652344 268.664062 503.589844 267.859375 502.558594 267.019531 Z M 540.765625 280.066406 C 538.304688 280.128906 535.816406 280.035156 533.3125 279.773438 C 533.484375 282.414062 533.414062 285.359375 533.082031 288.566406 C 536.542969 288.9375 539.988281 289.03125 543.390625 288.859375 C 542.867188 285.675781 541.972656 282.726562 540.765625 280.066406 Z M 506.027344 269.636719 C 503.699219 271.050781 501.5 272.796875 499.464844 274.808594 C 501.976562 276.800781 504.644531 278.625 507.460938 280.246094 C 508.996094 277.714844 510.613281 275.417969 512.269531 273.4375 C 510.097656 272.296875 508.015625 271.023438 506.027344 269.636719 Z M 533.117188 279.753906 C 531.449219 279.574219 529.769531 279.324219 528.089844 278.992188 C 526.191406 278.621094 524.332031 278.15625 522.515625 277.613281 L 519.683594 285.683594 C 521.164062 286.167969 522.675781 286.601562 524.210938 286.988281 C 527.132812 287.714844 530.0625 288.234375 532.980469 288.554688 C 533.289062 285.335938 533.328125 282.382812 533.117188 279.753906 Z M 512.433594 273.523438 C 510.75 275.480469 509.105469 277.761719 507.550781 280.292969 C 511.257812 282.417969 515.21875 284.203125 519.40625 285.59375 L 522.105469 277.488281 C 518.722656 276.445312 515.492188 275.113281 512.433594 273.523438 Z M 550.332031 288.484375 C 548.128906 288.8125 545.898438 289.035156 543.648438 289.140625 C 544.027344 291.78125 544.160156 294.570312 544.019531 297.480469 C 544 297.925781 543.96875 298.371094 543.9375 298.8125 C 546.917969 298.667969 549.859375 298.34375 552.746094 297.855469 C 552.347656 294.578125 551.523438 291.4375 550.332031 288.484375 Z M 494.675781 270.941406 C 491.992188 272.703125 489.5625 274.804688 487.433594 277.171875 C 489.28125 279 491.226562 280.730469 493.253906 282.359375 C 494.992188 279.589844 496.972656 277.050781 499.152344 274.824219 C 497.597656 273.59375 496.105469 272.296875 494.675781 270.941406 Z M 543.4375 289.148438 C 540.011719 289.296875 536.542969 289.179688 533.058594 288.785156 C 532.898438 290.304688 532.675781 291.886719 532.394531 293.515625 C 532.113281 295.144531 531.78125 296.769531 531.398438 298.386719 C 532.945312 298.570312 534.507812 298.703125 536.082031 298.789062 C 538.683594 298.929688 541.261719 298.9375 543.808594 298.816406 C 543.835938 298.414062 543.863281 298.011719 543.882812 297.605469 C 544.011719 294.652344 543.855469 291.820312 543.4375 289.148438 Z M 499.3125 274.957031 C 497.109375 277.15625 495.101562 279.675781 493.351562 282.4375 C 496.363281 284.851562 499.5625 287.039062 502.929688 288.976562 C 504.292969 285.910156 505.789062 283.023438 507.378906 280.386719 C 504.539062 278.761719 501.847656 276.949219 499.3125 274.957031 Z M 532.960938 288.773438 C 530.113281 288.441406 527.253906 287.929688 524.398438 287.214844 C 522.78125 286.8125 521.191406 286.347656 519.632812 285.835938 L 516.402344 295.039062 C 521.175781 296.636719 526.171875 297.769531 531.34375 298.378906 C 531.707031 296.8125 532.027344 295.234375 532.296875 293.65625 C 532.582031 291.96875 532.804688 290.339844 532.960938 288.773438 Z M 507.464844 280.433594 C 505.863281 283.054688 504.351562 285.941406 502.980469 289.003906 C 507.171875 291.410156 511.617188 293.425781 516.277344 294.996094 L 519.355469 285.746094 C 515.164062 284.34375 511.1875 282.558594 507.464844 280.433594 Z M 507.464844 280.433594 " fill-opacity="1" fill-rule="nonzero"/></g><g fill="#000000" fill-opacity="1"><g transform="translate(471.172102, 294.557931)"><g><path d="M 8.625 -3.34375 C 8.625 -2.257812 8.226562 -1.398438 7.4375 -0.765625 C 6.65625 -0.140625 5.570312 0.171875 4.1875 0.171875 C 2.894531 0.171875 1.757812 -0.0703125 0.78125 -0.5625 L 0.78125 -2.9375 C 1.582031 -2.570312 2.265625 -2.3125 2.828125 -2.15625 C 3.398438 -2.007812 3.914062 -1.9375 4.375 -1.9375 C 4.9375 -1.9375 5.363281 -2.039062 5.65625 -2.25 C 5.957031 -2.46875 6.109375 -2.789062 6.109375 -3.21875 C 6.109375 -3.457031 6.039062 -3.664062 5.90625 -3.84375 C 5.78125 -4.03125 5.585938 -4.207031 5.328125 -4.375 C 5.078125 -4.550781 4.5625 -4.820312 3.78125 -5.1875 C 3.039062 -5.539062 2.488281 -5.875 2.125 -6.1875 C 1.757812 -6.507812 1.460938 -6.878906 1.234375 -7.296875 C 1.015625 -7.722656 0.90625 -8.21875 0.90625 -8.78125 C 0.90625 -9.84375 1.265625 -10.675781 1.984375 -11.28125 C 2.710938 -11.894531 3.710938 -12.203125 4.984375 -12.203125 C 5.609375 -12.203125 6.203125 -12.128906 6.765625 -11.984375 C 7.335938 -11.835938 7.9375 -11.628906 8.5625 -11.359375 L 7.734375 -9.375 C 7.097656 -9.632812 6.566406 -9.816406 6.140625 -9.921875 C 5.722656 -10.023438 5.3125 -10.078125 4.90625 -10.078125 C 4.425781 -10.078125 4.054688 -9.960938 3.796875 -9.734375 C 3.535156 -9.515625 3.40625 -9.222656 3.40625 -8.859375 C 3.40625 -8.640625 3.457031 -8.445312 3.5625 -8.28125 C 3.664062 -8.113281 3.832031 -7.953125 4.0625 -7.796875 C 4.289062 -7.640625 4.832031 -7.359375 5.6875 -6.953125 C 6.8125 -6.410156 7.582031 -5.867188 8 -5.328125 C 8.414062 -4.785156 8.625 -4.125 8.625 -3.34375 Z M 8.625 -3.34375 "/></g></g></g><g fill="#000000" fill-opacity="1"><g transform="translate(480.457107, 294.557931)"><g><path d="M 1.203125 -11.578125 C 1.203125 -12.398438 1.660156 -12.8125 2.578125 -12.8125 C 3.484375 -12.8125 3.9375 -12.398438 3.9375 -11.578125 C 3.9375 -11.191406 3.820312 -10.890625 3.59375 -10.671875 C 3.375 -10.453125 3.035156 -10.34375 2.578125 -10.34375 C 1.660156 -10.34375 1.203125 -10.753906 1.203125 -11.578125 Z M 3.828125 0 L 1.3125 0 L 1.3125 -9.203125 L 3.828125 -9.203125 Z M 3.828125 0 "/></g></g></g><g fill="#000000" fill-opacity="1"><g transform="translate(485.601723, 294.557931)"><g><path d="M 9.328125 -9.203125 L 9.328125 -7.921875 L 7.890625 -7.5625 C 8.148438 -7.144531 8.28125 -6.679688 8.28125 -6.171875 C 8.28125 -5.179688 7.9375 -4.410156 7.25 -3.859375 C 6.5625 -3.304688 5.601562 -3.03125 4.375 -3.03125 L 3.921875 -3.0625 L 3.5625 -3.109375 C 3.300781 -2.910156 3.171875 -2.6875 3.171875 -2.4375 C 3.171875 -2.082031 3.628906 -1.90625 4.546875 -1.90625 L 6.109375 -1.90625 C 7.117188 -1.90625 7.890625 -1.6875 8.421875 -1.25 C 8.953125 -0.8125 9.21875 -0.175781 9.21875 0.65625 C 9.21875 1.726562 8.769531 2.5625 7.875 3.15625 C 6.976562 3.75 5.691406 4.046875 4.015625 4.046875 C 2.722656 4.046875 1.738281 3.820312 1.0625 3.375 C 0.382812 2.925781 0.046875 2.300781 0.046875 1.5 C 0.046875 0.945312 0.21875 0.484375 0.5625 0.109375 C 0.914062 -0.265625 1.425781 -0.53125 2.09375 -0.6875 C 1.832031 -0.800781 1.601562 -0.984375 1.40625 -1.234375 C 1.21875 -1.484375 1.125 -1.75 1.125 -2.03125 C 1.125 -2.375 1.222656 -2.660156 1.421875 -2.890625 C 1.628906 -3.128906 1.925781 -3.363281 2.3125 -3.59375 C 1.832031 -3.800781 1.445312 -4.132812 1.15625 -4.59375 C 0.875 -5.050781 0.734375 -5.59375 0.734375 -6.21875 C 0.734375 -7.226562 1.0625 -8.003906 1.71875 -8.546875 C 2.375 -9.097656 3.304688 -9.375 4.515625 -9.375 C 4.773438 -9.375 5.082031 -9.347656 5.4375 -9.296875 C 5.789062 -9.253906 6.015625 -9.222656 6.109375 -9.203125 Z M 2.21875 1.296875 C 2.21875 1.640625 2.382812 1.910156 2.71875 2.109375 C 3.050781 2.304688 3.515625 2.40625 4.109375 2.40625 C 5.015625 2.40625 5.722656 2.28125 6.234375 2.03125 C 6.742188 1.789062 7 1.457031 7 1.03125 C 7 0.6875 6.847656 0.445312 6.546875 0.3125 C 6.242188 0.175781 5.773438 0.109375 5.140625 0.109375 L 3.84375 0.109375 C 3.382812 0.109375 3 0.21875 2.6875 0.4375 C 2.375 0.65625 2.21875 0.941406 2.21875 1.296875 Z M 3.140625 -6.1875 C 3.140625 -5.6875 3.25 -5.289062 3.46875 -5 C 3.695312 -4.707031 4.046875 -4.5625 4.515625 -4.5625 C 4.992188 -4.5625 5.34375 -4.707031 5.5625 -5 C 5.78125 -5.289062 5.890625 -5.6875 5.890625 -6.1875 C 5.890625 -7.300781 5.429688 -7.859375 4.515625 -7.859375 C 3.597656 -7.859375 3.140625 -7.300781 3.140625 -6.1875 Z M 3.140625 -6.1875 "/></g></g></g><g fill="#000000" fill-opacity="1"><g transform="translate(495.125438, 294.557931)"><g/></g></g><g fill="#000000" fill-opacity="1"><g transform="translate(499.504536, 294.557931)"><g><path d="M 13.234375 0 L 10.328125 0 L 8.703125 -6.328125 C 8.640625 -6.546875 8.535156 -7.007812 8.390625 -7.71875 C 8.242188 -8.425781 8.160156 -8.898438 8.140625 -9.140625 C 8.109375 -8.835938 8.023438 -8.359375 7.890625 -7.703125 C 7.765625 -7.046875 7.664062 -6.582031 7.59375 -6.3125 L 5.96875 0 L 3.078125 0 L 0 -12.03125 L 2.515625 -12.03125 L 4.046875 -5.46875 C 4.316406 -4.25 4.515625 -3.195312 4.640625 -2.3125 C 4.671875 -2.625 4.742188 -3.109375 4.859375 -3.765625 C 4.972656 -4.421875 5.082031 -4.929688 5.1875 -5.296875 L 6.953125 -12.03125 L 9.359375 -12.03125 L 11.109375 -5.296875 C 11.191406 -4.992188 11.289062 -4.53125 11.40625 -3.90625 C 11.519531 -3.289062 11.609375 -2.757812 11.671875 -2.3125 C 11.722656 -2.738281 11.804688 -3.269531 11.921875 -3.90625 C 12.046875 -4.550781 12.15625 -5.070312 12.25 -5.46875 L 13.78125 -12.03125 L 16.296875 -12.03125 Z M 13.234375 0 "/></g></g></g><g fill="#000000" fill-opacity="1"><g transform="translate(515.802682, 294.557931)"><g><path d="M 5.125 -7.59375 C 4.59375 -7.59375 4.175781 -7.421875 3.875 -7.078125 C 3.570312 -6.742188 3.398438 -6.265625 3.359375 -5.640625 L 6.875 -5.640625 C 6.863281 -6.265625 6.703125 -6.742188 6.390625 -7.078125 C 6.078125 -7.421875 5.65625 -7.59375 5.125 -7.59375 Z M 5.484375 0.171875 C 4.003906 0.171875 2.84375 -0.234375 2 -1.046875 C 1.164062 -1.867188 0.75 -3.03125 0.75 -4.53125 C 0.75 -6.070312 1.132812 -7.265625 1.90625 -8.109375 C 2.6875 -8.953125 3.753906 -9.375 5.109375 -9.375 C 6.410156 -9.375 7.421875 -9.003906 8.140625 -8.265625 C 8.867188 -7.523438 9.234375 -6.5 9.234375 -5.1875 L 9.234375 -3.96875 L 3.296875 -3.96875 C 3.328125 -3.257812 3.539062 -2.703125 3.9375 -2.296875 C 4.332031 -1.898438 4.882812 -1.703125 5.59375 -1.703125 C 6.144531 -1.703125 6.664062 -1.757812 7.15625 -1.875 C 7.65625 -1.988281 8.175781 -2.171875 8.71875 -2.421875 L 8.71875 -0.484375 C 8.28125 -0.265625 7.8125 -0.101562 7.3125 0 C 6.8125 0.113281 6.203125 0.171875 5.484375 0.171875 Z M 5.484375 0.171875 "/></g></g></g><g fill="#000000" fill-opacity="1"><g transform="translate(525.76266, 294.557931)"><g><path d="M 6.4375 -9.375 C 7.519531 -9.375 8.367188 -8.945312 8.984375 -8.09375 C 9.597656 -7.25 9.90625 -6.09375 9.90625 -4.625 C 9.90625 -3.101562 9.585938 -1.921875 8.953125 -1.078125 C 8.328125 -0.242188 7.46875 0.171875 6.375 0.171875 C 5.289062 0.171875 4.441406 -0.222656 3.828125 -1.015625 L 3.65625 -1.015625 L 3.234375 0 L 1.3125 0 L 1.3125 -12.8125 L 3.828125 -12.8125 L 3.828125 -9.828125 C 3.828125 -9.453125 3.796875 -8.847656 3.734375 -8.015625 L 3.828125 -8.015625 C 4.410156 -8.921875 5.28125 -9.375 6.4375 -9.375 Z M 5.625 -7.375 C 5.007812 -7.375 4.554688 -7.179688 4.265625 -6.796875 C 3.984375 -6.410156 3.835938 -5.78125 3.828125 -4.90625 L 3.828125 -4.640625 C 3.828125 -3.648438 3.972656 -2.941406 4.265625 -2.515625 C 4.554688 -2.085938 5.019531 -1.875 5.65625 -1.875 C 6.175781 -1.875 6.585938 -2.109375 6.890625 -2.578125 C 7.191406 -3.054688 7.34375 -3.75 7.34375 -4.65625 C 7.34375 -5.5625 7.1875 -6.238281 6.875 -6.6875 C 6.570312 -7.144531 6.15625 -7.375 5.625 -7.375 Z M 5.625 -7.375 "/></g></g></g></svg>