<svg xmlns="http://www.w3.org/2000/svg" xmlns:xlink="http://www.w3.org/1999/xlink" width="1366" zoomAndPan="magnify" viewBox="0 0 1024.5 576" height="768" preserveAspectRatio="xMidYMid meet" version="1.0"><defs><g/><clipPath id="bdc6597f5c"><path d="M 265.574219 126 L 758.921875 126 L 758.921875 450.601562 L 265.574219 450.601562 Z M 265.574219 126 " clip-rule="nonzero"/></clipPath></defs><g clip-path="url(#bdc6597f5c)"><path fill="#cccccc" d="M 586.816406 140.933594 C 682.996094 174.558594 753.660156 264.300781 757.933594 372.363281 C 759.007812 399.496094 755.800781 425.8125 748.945312 450.65625 L 748.136719 450.378906 C 754.902344 425.898438 757.988281 399.9375 756.789062 373.152344 C 756.527344 367.320312 756.054688 361.546875 755.40625 355.828125 C 735.6875 359.003906 715.625 361.035156 695.28125 361.914062 C 693.421875 384.574219 689.191406 406.824219 682.945312 428.210938 L 682.363281 428.011719 C 688.585938 406.71875 692.722656 384.554688 694.441406 361.953125 C 677.757812 362.648438 660.878906 362.558594 643.863281 361.628906 C 632.480469 361.007812 621.21875 360.019531 610.058594 358.6875 C 606.78125 372.460938 603.015625 386.136719 598.800781 399.597656 L 598.460938 399.480469 C 602.671875 386.046875 606.433594 372.386719 609.675781 358.632812 C 574.585938 354.414062 540.636719 346.742188 508.171875 335.972656 L 491.070312 384.578125 L 507.363281 335.699219 C 475.683594 325.132812 445.40625 311.632812 416.847656 295.511719 C 411.5 307.519531 406.46875 319.917969 401.820312 332.609375 L 401.484375 332.496094 C 406.140625 319.785156 411.175781 307.363281 416.511719 295.324219 C 393.519531 282.324219 371.632812 267.640625 351.027344 251.4375 C 340.390625 268.4375 331.183594 286.765625 323.695312 306.039062 L 323.066406 305.824219 C 330.589844 286.46875 339.785156 268.039062 350.378906 250.914062 C 336.429688 239.914062 323.058594 228.214844 310.332031 215.878906 C 291.980469 236.71875 277.101562 260.585938 266.550781 286.605469 L 265.71875 286.324219 C 302.320312 196.15625 388.984375 131 492.476562 126.90625 C 518.515625 125.875 543.792969 128.785156 567.746094 135.097656 C 569.796875 135.585938 571.828125 136.117188 573.84375 136.695312 C 575.40625 137.070312 576.941406 137.535156 578.4375 138.082031 C 578.554688 138.125 578.667969 138.179688 578.789062 138.226562 C 579.855469 138.574219 580.929688 138.914062 581.984375 139.289062 C 582.195312 139.359375 582.398438 139.449219 582.605469 139.523438 C 584.011719 139.988281 585.421875 140.441406 586.816406 140.929688 Z M 578.3125 142.507812 C 577.703125 142.3125 577.089844 142.121094 576.476562 141.933594 L 566.15625 171.226562 C 581.378906 176.132812 596.71875 179.925781 612.089844 182.65625 C 604.441406 162.207031 592.949219 148.332031 578.3125 142.507812 Z M 572.410156 140.699219 C 572.039062 140.59375 571.660156 140.5 571.289062 140.394531 C 560.707031 138.164062 548.734375 139.730469 535.5625 145.621094 C 530.890625 147.710938 526.199219 150.300781 521.492188 153.328125 C 534.121094 159.425781 547.230469 164.839844 560.816406 169.460938 C 561.417969 169.664062 562.023438 169.847656 562.621094 170.046875 Z M 595.828125 149.589844 C 603.695312 157.636719 610.070312 168.945312 614.742188 183.109375 C 624.5 184.765625 634.28125 185.988281 644.035156 186.800781 C 630.164062 171.023438 613.914062 158.417969 595.828125 149.589844 Z M 553.140625 136.503906 C 539.144531 134.515625 524.484375 134.515625 509.324219 136.699219 C 504.652344 137.371094 500.015625 138.253906 495.40625 139.3125 C 503.070312 143.863281 510.953125 148.15625 519.039062 152.140625 C 524.929688 148.019531 530.824219 144.597656 536.664062 141.933594 C 542.386719 139.320312 547.882812 137.523438 553.140625 136.503906 Z M 621.046875 160.398438 C 631.125 168.015625 640.410156 176.980469 648.742188 187.171875 C 653.371094 187.492188 657.980469 187.710938 662.59375 187.84375 C 649.710938 177.421875 635.796875 168.214844 621.046875 160.398438 Z M 523.699219 131.554688 C 513.140625 130.609375 502.414062 130.28125 491.554688 130.65625 C 488.464844 130.761719 485.378906 130.9375 482.316406 131.152344 C 485.316406 133.121094 488.355469 135.050781 491.429688 136.933594 C 497.667969 135.265625 503.980469 133.9375 510.335938 132.980469 C 514.835938 132.304688 519.292969 131.851562 523.699219 131.554688 Z M 666.628906 191.171875 C 661.578125 191.089844 656.511719 190.902344 651.441406 190.59375 C 660.933594 202.808594 669.136719 216.65625 675.832031 231.894531 C 685.222656 231.542969 694.558594 230.847656 703.820312 229.824219 C 692.808594 215.683594 680.332031 202.722656 666.628906 191.171875 Z M 477.015625 131.578125 C 455.84375 133.496094 435.496094 137.960938 416.246094 144.667969 C 423.089844 150.285156 430.140625 155.703125 437.382812 160.859375 C 453.238281 150.914062 469.921875 143.199219 487.144531 138.132812 C 483.726562 136 480.34375 133.816406 477.015625 131.578125 Z M 647.050781 190.328125 C 647.046875 190.324219 647.03125 190.328125 647.027344 190.320312 C 636.648438 189.5625 626.246094 188.328125 615.839844 186.613281 C 619.621094 199.183594 622.136719 213.824219 623.269531 230.265625 C 640.03125 231.925781 656.703125 232.480469 673.203125 231.976562 C 666.003906 216.511719 657.21875 202.542969 647.050781 190.328125 Z M 490.855469 140.421875 C 473.019531 145.023438 455.738281 152.433594 439.347656 162.25 C 452.671875 171.609375 466.667969 180.140625 481.257812 187.8125 C 492.671875 174.292969 504.359375 162.957031 516.058594 154.308594 C 507.414062 150 499.007812 145.363281 490.855469 140.421875 Z M 613.335938 186.183594 C 597.214844 183.40625 581.105469 179.460938 565.105469 174.296875 L 550.429688 215.976562 C 562.273438 219.5 574.394531 222.503906 586.777344 224.925781 C 598.519531 227.222656 610.257812 228.941406 621.941406 230.136719 C 620.527344 213.4375 617.59375 198.6875 613.335938 186.183594 Z M 518.347656 155.410156 C 506.273438 163.6875 494.195312 174.882812 482.40625 188.429688 C 502.996094 199.167969 524.777344 208.132812 547.613281 215.117188 L 561.617188 173.132812 C 561.019531 172.933594 560.425781 172.753906 559.832031 172.554688 C 545.460938 167.664062 531.628906 161.914062 518.347656 155.410156 Z M 705.082031 231.453125 C 695.632812 232.449219 686.097656 233.09375 676.507812 233.398438 C 684.273438 251.441406 689.921875 271.402344 693.171875 292.882812 C 708.226562 292.070312 723.15625 290.488281 737.914062 288.183594 C 729.4375 267.785156 718.339844 248.757812 705.082031 231.453125 Z M 414.71875 145.199219 C 396.222656 151.773438 378.78125 160.425781 362.636719 170.847656 C 372.203125 179.992188 382.210938 188.722656 392.617188 197.015625 C 406.1875 183.3125 420.839844 171.363281 436.304688 161.542969 C 428.914062 156.324219 421.699219 150.886719 414.71875 145.199219 Z M 673.902344 233.46875 C 657.207031 233.886719 640.328125 233.261719 623.355469 231.5 C 624.503906 249.355469 624.027344 269.292969 621.78125 290.976562 C 645.257812 293.503906 668.621094 294.132812 691.714844 292.964844 C 688.167969 271.425781 682.105469 251.457031 673.902344 233.46875 Z M 438.246094 162.90625 C 422.460938 172.484375 407.53125 184.28125 393.71875 197.894531 C 410.753906 211.390625 428.859375 223.710938 447.980469 234.679688 C 458.382812 217.554688 469.34375 202.023438 480.582031 188.613281 C 465.84375 180.902344 451.722656 172.300781 438.246094 162.90625 Z M 622.027344 231.347656 C 610.691406 230.132812 599.3125 228.445312 587.914062 226.21875 C 575.023438 223.695312 562.425781 220.558594 550.097656 216.867188 L 530.882812 271.472656 C 540.941406 274.753906 551.183594 277.699219 561.613281 280.292969 C 581.429688 285.222656 601.304688 288.726562 621.082031 290.886719 C 623.183594 269.117188 623.453125 249.148438 622.027344 231.347656 Z M 481.714844 189.199219 C 470.285156 202.433594 459.132812 217.886719 448.574219 235.007812 C 473.730469 249.390625 500.609375 261.464844 529.011719 270.863281 L 547.304688 216.019531 C 524.363281 208.96875 502.441406 199.957031 481.714844 189.199219 Z M 738.804688 290.421875 C 723.855469 292.648438 708.726562 294.15625 693.472656 294.867188 C 696.039062 312.71875 696.945312 331.601562 695.988281 351.296875 C 695.84375 354.308594 695.640625 357.304688 695.410156 360.304688 C 715.628906 359.3125 735.585938 357.128906 755.191406 353.824219 C 752.488281 331.664062 746.882812 310.402344 738.804688 290.421875 Z M 361.226562 171.746094 C 343.027344 183.664062 326.535156 197.863281 312.109375 213.902344 C 324.648438 226.257812 337.835938 237.960938 351.589844 248.992188 C 363.371094 230.242188 376.828125 213.074219 391.601562 198 C 381.066406 189.679688 370.925781 180.914062 361.226562 171.746094 Z M 692.023438 294.921875 C 668.792969 295.929688 645.269531 295.132812 621.628906 292.449219 C 620.527344 302.746094 619.035156 313.429688 617.121094 324.46875 C 615.214844 335.472656 612.945312 346.484375 610.367188 357.429688 C 620.855469 358.65625 631.453125 359.554688 642.144531 360.140625 C 659.78125 361.101562 677.261719 361.148438 694.550781 360.332031 C 694.742188 357.609375 694.925781 354.878906 695.046875 352.148438 C 695.9375 332.152344 694.859375 312.992188 692.023438 294.921875 Z M 392.703125 198.894531 C 377.738281 213.796875 364.117188 230.828125 352.242188 249.507812 C 372.675781 265.847656 394.382812 280.652344 417.226562 293.753906 C 426.480469 273.019531 436.632812 253.46875 447.40625 235.628906 C 428.160156 224.644531 409.886719 212.375 392.703125 198.894531 Z M 620.957031 292.367188 C 601.632812 290.144531 582.25 286.664062 562.867188 281.839844 C 551.886719 279.109375 541.113281 275.972656 530.53125 272.5 L 508.617188 334.765625 C 541.007812 345.582031 574.910156 353.246094 609.984375 357.375 C 612.460938 346.761719 614.625 336.09375 616.449219 325.417969 C 618.398438 314.003906 619.894531 302.980469 620.953125 292.367188 Z M 448 235.957031 C 437.117188 253.703125 426.871094 273.214844 417.566406 293.945312 C 446 310.222656 476.167969 323.859375 507.785156 334.484375 L 528.660156 271.890625 C 500.21875 262.417969 473.261719 250.324219 447.996094 235.957031 Z M 448 235.957031 " fill-opacity="1" fill-rule="nonzero"/></g><g fill="#001524" fill-opacity="1"><g transform="translate(282.919611, 271.728415)"><g><path d="M 40.328125 -15.640625 C 40.328125 -10.554688 38.5 -6.550781 34.84375 -3.625 C 31.1875 -0.695312 26.09375 0.765625 19.5625 0.765625 C 13.5625 0.765625 8.25 -0.363281 3.625 -2.625 L 3.625 -13.71875 C 7.425781 -12.019531 10.640625 -10.820312 13.265625 -10.125 C 15.898438 -9.4375 18.3125 -9.09375 20.5 -9.09375 C 23.113281 -9.09375 25.117188 -9.59375 26.515625 -10.59375 C 27.921875 -11.59375 28.625 -13.082031 28.625 -15.0625 C 28.625 -16.164062 28.3125 -17.144531 27.6875 -18 C 27.070312 -18.863281 26.164062 -19.691406 24.96875 -20.484375 C 23.78125 -21.285156 21.351562 -22.5625 17.6875 -24.3125 C 14.238281 -25.925781 11.65625 -27.476562 9.9375 -28.96875 C 8.21875 -30.457031 6.84375 -32.191406 5.8125 -34.171875 C 4.789062 -36.148438 4.28125 -38.460938 4.28125 -41.109375 C 4.28125 -46.085938 5.96875 -50 9.34375 -52.84375 C 12.71875 -55.695312 17.382812 -57.125 23.34375 -57.125 C 26.269531 -57.125 29.0625 -56.773438 31.71875 -56.078125 C 34.375 -55.390625 37.15625 -54.414062 40.0625 -53.15625 L 36.203125 -43.875 C 33.203125 -45.101562 30.71875 -45.960938 28.75 -46.453125 C 26.789062 -46.941406 24.859375 -47.1875 22.953125 -47.1875 C 20.691406 -47.1875 18.957031 -46.660156 17.75 -45.609375 C 16.550781 -44.554688 15.953125 -43.179688 15.953125 -41.484375 C 15.953125 -40.429688 16.191406 -39.515625 16.671875 -38.734375 C 17.160156 -37.953125 17.9375 -37.191406 19 -36.453125 C 20.070312 -35.722656 22.597656 -34.410156 26.578125 -32.515625 C 31.835938 -29.992188 35.441406 -27.46875 37.390625 -24.9375 C 39.347656 -22.40625 40.328125 -19.304688 40.328125 -15.640625 Z M 40.328125 -15.640625 "/></g></g></g><g fill="#001524" fill-opacity="1"><g transform="translate(326.365038, 271.728415)"><g><path d="M 5.65625 -54.203125 C 5.65625 -58.023438 7.789062 -59.9375 12.0625 -59.9375 C 16.320312 -59.9375 18.453125 -58.023438 18.453125 -54.203125 C 18.453125 -52.378906 17.914062 -50.957031 16.84375 -49.9375 C 15.78125 -48.925781 14.1875 -48.421875 12.0625 -48.421875 C 7.789062 -48.421875 5.65625 -50.347656 5.65625 -54.203125 Z M 17.90625 0 L 6.15625 0 L 6.15625 -43.0625 L 17.90625 -43.0625 Z M 17.90625 0 "/></g></g></g><g fill="#001524" fill-opacity="1"><g transform="translate(350.437194, 271.728415)"><g><path d="M 43.640625 -43.0625 L 43.640625 -37.09375 L 36.90625 -35.359375 C 38.132812 -33.429688 38.75 -31.273438 38.75 -28.890625 C 38.75 -24.265625 37.132812 -20.660156 33.90625 -18.078125 C 30.6875 -15.503906 26.21875 -14.21875 20.5 -14.21875 L 18.375 -14.328125 L 16.640625 -14.515625 C 15.429688 -13.597656 14.828125 -12.570312 14.828125 -11.4375 C 14.828125 -9.738281 16.984375 -8.890625 21.296875 -8.890625 L 28.625 -8.890625 C 33.34375 -8.890625 36.941406 -7.875 39.421875 -5.84375 C 41.898438 -3.820312 43.140625 -0.847656 43.140625 3.078125 C 43.140625 8.109375 41.039062 12.007812 36.84375 14.78125 C 32.644531 17.5625 26.617188 18.953125 18.765625 18.953125 C 12.753906 18.953125 8.160156 17.90625 4.984375 15.8125 C 1.816406 13.71875 0.234375 10.785156 0.234375 7.015625 C 0.234375 4.421875 1.039062 2.25 2.65625 0.5 C 4.269531 -1.25 6.644531 -2.492188 9.78125 -3.234375 C 8.570312 -3.742188 7.519531 -4.582031 6.625 -5.75 C 5.726562 -6.925781 5.28125 -8.164062 5.28125 -9.46875 C 5.28125 -11.113281 5.753906 -12.484375 6.703125 -13.578125 C 7.648438 -14.671875 9.023438 -15.742188 10.828125 -16.796875 C 8.566406 -17.773438 6.773438 -19.34375 5.453125 -21.5 C 4.128906 -23.65625 3.46875 -26.195312 3.46875 -29.125 C 3.46875 -33.820312 4.992188 -37.453125 8.046875 -40.015625 C 11.109375 -42.585938 15.472656 -43.875 21.140625 -43.875 C 22.347656 -43.875 23.78125 -43.765625 25.4375 -43.546875 C 27.09375 -43.328125 28.15625 -43.164062 28.625 -43.0625 Z M 10.40625 6.09375 C 10.40625 7.707031 11.179688 8.972656 12.734375 9.890625 C 14.285156 10.816406 16.460938 11.28125 19.265625 11.28125 C 23.472656 11.28125 26.769531 10.703125 29.15625 9.546875 C 31.550781 8.390625 32.75 6.8125 32.75 4.8125 C 32.75 3.195312 32.039062 2.082031 30.625 1.46875 C 29.207031 0.851562 27.023438 0.546875 24.078125 0.546875 L 17.984375 0.546875 C 15.828125 0.546875 14.023438 1.050781 12.578125 2.0625 C 11.128906 3.070312 10.40625 4.414062 10.40625 6.09375 Z M 14.671875 -28.96875 C 14.671875 -26.632812 15.203125 -24.785156 16.265625 -23.421875 C 17.335938 -22.054688 18.960938 -21.375 21.140625 -21.375 C 23.347656 -21.375 24.96875 -22.054688 26 -23.421875 C 27.03125 -24.785156 27.546875 -26.632812 27.546875 -28.96875 C 27.546875 -34.15625 25.410156 -36.75 21.140625 -36.75 C 16.828125 -36.75 14.671875 -34.15625 14.671875 -28.96875 Z M 14.671875 -28.96875 "/></g></g></g><g fill="#001524" fill-opacity="1"><g transform="translate(415.489789, 271.728415)"><g><path d="M 61.9375 0 L 48.34375 0 L 40.71875 -29.578125 C 40.4375 -30.628906 39.953125 -32.804688 39.265625 -36.109375 C 38.585938 -39.410156 38.195312 -41.628906 38.09375 -42.765625 C 37.9375 -41.367188 37.550781 -39.132812 36.9375 -36.0625 C 36.320312 -33 35.847656 -30.8125 35.515625 -29.5 L 27.921875 0 L 14.375 0 L 0 -56.3125 L 11.75 -56.3125 L 18.953125 -25.578125 C 20.210938 -19.898438 21.125 -14.984375 21.6875 -10.828125 C 21.84375 -12.285156 22.195312 -14.546875 22.75 -17.609375 C 23.300781 -20.679688 23.820312 -23.066406 24.3125 -24.765625 L 32.515625 -56.3125 L 43.796875 -56.3125 L 52 -24.765625 C 52.363281 -23.359375 52.8125 -21.203125 53.34375 -18.296875 C 53.882812 -15.390625 54.296875 -12.898438 54.578125 -10.828125 C 54.835938 -12.828125 55.25 -15.320312 55.8125 -18.3125 C 56.382812 -21.300781 56.898438 -23.722656 57.359375 -25.578125 L 64.515625 -56.3125 L 76.265625 -56.3125 Z M 61.9375 0 "/></g></g></g><g fill="#001524" fill-opacity="1"><g transform="translate(491.750379, 271.728415)"><g><path d="M 24 -35.515625 C 21.507812 -35.515625 19.554688 -34.722656 18.140625 -33.140625 C 16.734375 -31.566406 15.925781 -29.328125 15.71875 -26.421875 L 32.203125 -26.421875 C 32.148438 -29.328125 31.390625 -31.566406 29.921875 -33.140625 C 28.460938 -34.722656 26.488281 -35.515625 24 -35.515625 Z M 25.65625 0.765625 C 18.71875 0.765625 13.296875 -1.144531 9.390625 -4.96875 C 5.492188 -8.789062 3.546875 -14.207031 3.546875 -21.21875 C 3.546875 -28.4375 5.347656 -34.015625 8.953125 -37.953125 C 12.566406 -41.898438 17.554688 -43.875 23.921875 -43.875 C 30.003906 -43.875 34.738281 -42.140625 38.125 -38.671875 C 41.519531 -35.203125 43.21875 -30.414062 43.21875 -24.3125 L 43.21875 -18.609375 L 15.453125 -18.609375 C 15.578125 -15.265625 16.5625 -12.65625 18.40625 -10.78125 C 20.257812 -8.90625 22.851562 -7.96875 26.1875 -7.96875 C 28.78125 -7.96875 31.234375 -8.238281 33.546875 -8.78125 C 35.859375 -9.320312 38.273438 -10.179688 40.796875 -11.359375 L 40.796875 -2.265625 C 38.742188 -1.242188 36.546875 -0.484375 34.203125 0.015625 C 31.867188 0.515625 29.019531 0.765625 25.65625 0.765625 Z M 25.65625 0.765625 "/></g></g></g><g fill="#001524" fill-opacity="1"><g transform="translate(538.354073, 271.728415)"><g><path d="M 30.125 -43.875 C 35.207031 -43.875 39.1875 -41.890625 42.0625 -37.921875 C 44.9375 -33.953125 46.375 -28.515625 46.375 -21.609375 C 46.375 -14.492188 44.890625 -8.984375 41.921875 -5.078125 C 38.960938 -1.179688 34.925781 0.765625 29.8125 0.765625 C 24.75 0.765625 20.78125 -1.066406 17.90625 -4.734375 L 17.109375 -4.734375 L 15.140625 0 L 6.15625 0 L 6.15625 -59.9375 L 17.90625 -59.9375 L 17.90625 -46 C 17.90625 -44.21875 17.753906 -41.378906 17.453125 -37.484375 L 17.90625 -37.484375 C 20.65625 -41.742188 24.726562 -43.875 30.125 -43.875 Z M 26.34375 -34.46875 C 23.445312 -34.46875 21.328125 -33.578125 19.984375 -31.796875 C 18.648438 -30.015625 17.957031 -27.066406 17.90625 -22.953125 L 17.90625 -21.6875 C 17.90625 -17.0625 18.59375 -13.75 19.96875 -11.75 C 21.34375 -9.75 23.519531 -8.75 26.5 -8.75 C 28.914062 -8.75 30.835938 -9.859375 32.265625 -12.078125 C 33.691406 -14.296875 34.40625 -17.523438 34.40625 -21.765625 C 34.40625 -26.003906 33.679688 -29.179688 32.234375 -31.296875 C 30.796875 -33.410156 28.832031 -34.46875 26.34375 -34.46875 Z M 26.34375 -34.46875 "/></g></g></g></svg>